<?xml version="1.0" encoding="UTF-8" standalone="no"?>
<!-- Created with Inkscape (http://www.inkscape.org/) -->

<svg
   xmlns:dc="http://purl.org/dc/elements/1.1/"
   xmlns:cc="http://creativecommons.org/ns#"
   xmlns:rdf="http://www.w3.org/1999/02/22-rdf-syntax-ns#"
   xmlns:svg="http://www.w3.org/2000/svg"
   xmlns="http://www.w3.org/2000/svg"
   xmlns:xlink="http://www.w3.org/1999/xlink"
   xmlns:sodipodi="http://sodipodi.sourceforge.net/DTD/sodipodi-0.dtd"
   xmlns:inkscape="http://www.inkscape.org/namespaces/inkscape"
   width="297mm"
   height="210mm"
   viewBox="0 0 1052.3622 744.09448"
   id="svg4193"
   version="1.1"
   inkscape:version="0.91 r13725"
   sodipodi:docname="drawing-10.svg">
  <defs
     id="defs4195">
    <inkscape:path-effect
       effect="skeletal"
       id="path-effect5118"
       is_visible="true"
       pattern="M 0,5 C 0,2.24 2.24,0 5,0 7.76,0 10,2.24 10,5 10,7.76 7.76,10 5,10 2.24,10 0,7.76 0,5 Z"
       copytype="single_stretched"
       prop_scale="1"
       scale_y_rel="false"
       spacing="0"
       normal_offset="0"
       tang_offset="0"
       prop_units="false"
       vertical_pattern="false"
       fuse_tolerance="0" />
    <filter
       inkscape:label="Blur Double"
       inkscape:menu="Blurs"
       inkscape:menu-tooltip="Overlays two copies with different blur amounts and modifiable blend and composite"
       style="color-interpolation-filters:sRGB"
       id="filter5120">
      <feGaussianBlur
         stdDeviation="5"
         result="fbSourceGraphic"
         id="feGaussianBlur5122" />
      <feGaussianBlur
         stdDeviation="0.01"
         in="SourceGraphic"
         result="result1"
         id="feGaussianBlur5124" />
      <feComposite
         in2="result1"
         operator="arithmetic"
         in="fbSourceGraphic"
         k2="0.5"
         k3="0.5"
         result="result2"
         id="feComposite5126"
         k1="0"
         k4="0" />
      <feBlend
         in2="fbSourceGraphic"
         mode="normal"
         result="result3"
         id="feBlend5128" />
    </filter>
  </defs>
  <sodipodi:namedview
     id="base"
     pagecolor="#ffffff"
     bordercolor="#666666"
     borderopacity="1.0"
     inkscape:pageopacity="0.0"
     inkscape:pageshadow="2"
     inkscape:zoom="0.24"
     inkscape:cx="1641.0518"
     inkscape:cy="938.53998"
     inkscape:document-units="px"
     inkscape:current-layer="layer1"
     showgrid="true"
     inkscape:window-width="1440"
     inkscape:window-height="837"
     inkscape:window-x="-8"
     inkscape:window-y="-8"
     inkscape:window-maximized="1">
    <inkscape:grid
       type="xygrid"
       id="grid4741" />
  </sodipodi:namedview>
  <metadata
     id="metadata4198">
    <rdf:RDF>
      <cc:Work
         rdf:about="">
        <dc:format>image/svg+xml</dc:format>
        <dc:type
           rdf:resource="http://purl.org/dc/dcmitype/StillImage" />
        <dc:title></dc:title>
      </cc:Work>
    </rdf:RDF>
  </metadata>
  <g
     inkscape:label="Layer 1"
     inkscape:groupmode="layer"
     id="layer1"
     transform="translate(0,-308.26772)">
    <g
       id="g5275"
       transform="matrix(0.81323367,0,0,0.81323367,-637.95127,288.33183)">
      <rect
         transform="matrix(0.28946223,-0.95718944,0.55696007,0.83053927,0,0)"
         ry="9.3163621e-008"
         rx="2.4231402e-005"
         y="2397.2063"
         x="1687.0724"
         height="5.780098"
         width="171.29865"
         id="rect5099-0"
         style="opacity:1;fill:#e6e6e6;fill-opacity:1;stroke:#000000;stroke-width:0.15263356;stroke-linejoin:round;stroke-miterlimit:4;stroke-dasharray:none;stroke-opacity:1" />
      <path
         sodipodi:nodetypes="cc"
         inkscape:connector-curvature="0"
         id="path5047-9-1-8"
         d="m 1497.2236,328.85647 c 22.7009,-3.88757 30.4146,7.2157 19.921,36.53058"
         style="fill:none;fill-rule:evenodd;stroke:#000000;stroke-width:1.70613647px;stroke-linecap:butt;stroke-linejoin:miter;stroke-opacity:1" />
      <path
         sodipodi:nodetypes="cc"
         inkscape:connector-curvature="0"
         id="path5047-9-1"
         d="m 1616.8291,329.44844 c 22.701,-3.88756 30.4146,7.21571 19.921,36.53059"
         style="fill:none;fill-rule:evenodd;stroke:#000000;stroke-width:1.70613647px;stroke-linecap:butt;stroke-linejoin:miter;stroke-opacity:1" />
      <path
         sodipodi:nodetypes="cc"
         inkscape:connector-curvature="0"
         id="path5047-9"
         d="m 1591.1312,327.61896 c -22.7177,-3.736 -30.4371,6.93437 -19.9357,35.10634"
         style="fill:none;fill-rule:evenodd;stroke:#000000;stroke-width:1.67316532px;stroke-linecap:butt;stroke-linejoin:miter;stroke-opacity:1" />
      <path
         sodipodi:nodetypes="ccscc"
         inkscape:connector-curvature="0"
         id="path5021"
         d="m 1359.3547,358.87978 25.4861,-103.89328 c 0,0 78.6937,13.02366 88.5304,26.04732 9.8367,13.02366 29.5101,91.16562 29.5101,91.16562 l 0,0"
         style="fill:#800000;fill-rule:evenodd;stroke:#000000;stroke-width:2.26371408px;stroke-linecap:butt;stroke-linejoin:miter;stroke-opacity:1" />
      <g
         transform="matrix(1.967452,0,0,2.1278533,718.13829,-727.08496)"
         id="g4995">
        <path
           style="fill:#f2f2f2;fill-rule:evenodd;stroke:#000000;stroke-width:0.19810061;stroke-linecap:butt;stroke-linejoin:miter;stroke-miterlimit:4;stroke-dasharray:none;stroke-opacity:1"
           d="m 200.51625,542.36311 360.00198,0 0,-29.43273 -200.0011,0 -20.00011,-29.43272 -130.00072,0 z"
           id="path4751"
           inkscape:connector-curvature="0" />
        <rect
           style="opacity:1;fill:#000055;fill-opacity:1;stroke:#000000;stroke-width:1.5878154;stroke-linejoin:round;stroke-miterlimit:4;stroke-dasharray:none;stroke-opacity:1"
           id="rect4753"
           width="6.9752388"
           height="7.4678497"
           x="217.95328"
           y="518.14795"
           rx="7.158018e-005"
           ry="2.7343532e-007"
           inkscape:tile-cx="230.92365"
           inkscape:tile-cy="471.8819"
           inkscape:tile-w="8.5630542"
           inkscape:tile-h="9.0556651"
           inkscape:tile-x0="226.64213"
           inkscape:tile-y0="467.35407" />
        <use
           x="0"
           y="0"
           inkscape:tiled-clone-of="#rect4753"
           xlink:href="#rect4753"
           id="use4847"
           transform="translate(1.9704433,-27.586207)"
           width="100%"
           height="100%"
           inkscape:tile-cx="232.8941"
           inkscape:tile-cy="444.2957"
           inkscape:tile-w="8.5630542"
           inkscape:tile-h="9.0556651"
           inkscape:tile-x0="228.61257"
           inkscape:tile-y0="439.76787" />
        <use
           height="100%"
           width="100%"
           x="0"
           y="0"
           inkscape:tiled-clone-of="#rect4753"
           xlink:href="#rect4753"
           transform="translate(21.407636,0)"
           id="use4849" />
        <use
           height="100%"
           width="100%"
           x="0"
           y="0"
           inkscape:tiled-clone-of="#rect4753"
           xlink:href="#rect4753"
           transform="translate(42.815271,0)"
           id="use4851" />
        <use
           height="100%"
           width="100%"
           x="0"
           y="0"
           inkscape:tiled-clone-of="#rect4753"
           xlink:href="#rect4753"
           transform="translate(64.222907,0)"
           id="use4853" />
        <use
           height="100%"
           width="100%"
           x="0"
           y="0"
           inkscape:tiled-clone-of="#rect4753"
           xlink:href="#rect4753"
           transform="translate(85.630542,0)"
           id="use4855" />
        <use
           height="100%"
           width="100%"
           x="0"
           y="0"
           inkscape:tiled-clone-of="#rect4753"
           xlink:href="#rect4753"
           transform="translate(107.03818,0)"
           id="use4857" />
        <use
           height="100%"
           width="100%"
           x="0"
           y="0"
           inkscape:tiled-clone-of="#rect4753"
           xlink:href="#rect4753"
           transform="translate(128.44581,0)"
           id="use4859" />
        <use
           height="100%"
           width="100%"
           x="0"
           y="0"
           inkscape:tiled-clone-of="#rect4753"
           xlink:href="#rect4753"
           transform="translate(149.85345,0)"
           id="use4861" />
        <use
           height="100%"
           width="100%"
           x="0"
           y="0"
           inkscape:tiled-clone-of="#rect4753"
           xlink:href="#rect4753"
           transform="translate(171.26108,0)"
           id="use4863" />
        <use
           height="100%"
           width="100%"
           x="0"
           y="0"
           inkscape:tiled-clone-of="#rect4753"
           xlink:href="#rect4753"
           transform="translate(192.66872,0)"
           id="use4865" />
        <use
           height="100%"
           width="100%"
           x="0"
           y="0"
           inkscape:tiled-clone-of="#rect4753"
           xlink:href="#rect4753"
           transform="translate(214.07636,0)"
           id="use4867" />
        <use
           height="100%"
           width="100%"
           x="0"
           y="0"
           inkscape:tiled-clone-of="#rect4753"
           xlink:href="#rect4753"
           transform="translate(235.48399,0)"
           id="use4869" />
        <use
           height="100%"
           width="100%"
           x="0"
           y="0"
           inkscape:tiled-clone-of="#rect4753"
           xlink:href="#rect4753"
           transform="translate(256.89163,0)"
           id="use4871" />
        <use
           height="100%"
           width="100%"
           x="0"
           y="0"
           inkscape:tiled-clone-of="#rect4753"
           xlink:href="#rect4753"
           transform="translate(278.29926,0)"
           id="use4873" />
        <use
           height="100%"
           width="100%"
           x="0"
           y="0"
           inkscape:tiled-clone-of="#rect4753"
           xlink:href="#rect4753"
           transform="translate(299.7069,0)"
           id="use4875" />
        <use
           height="100%"
           width="100%"
           x="0"
           y="0"
           inkscape:tiled-clone-of="#rect4753"
           xlink:href="#rect4753"
           transform="translate(321.11453,0)"
           id="use4877" />
        <use
           height="100%"
           width="100%"
           x="0"
           y="0"
           inkscape:tiled-clone-of="#use4847"
           xlink:href="#use4847"
           id="use4879" />
        <use
           height="100%"
           width="100%"
           x="0"
           y="0"
           inkscape:tiled-clone-of="#use4847"
           xlink:href="#use4847"
           transform="translate(21.407636,0)"
           id="use4881" />
        <use
           height="100%"
           width="100%"
           x="0"
           y="0"
           inkscape:tiled-clone-of="#use4847"
           xlink:href="#use4847"
           transform="translate(42.815271,0)"
           id="use4883" />
        <use
           height="100%"
           width="100%"
           x="0"
           y="0"
           inkscape:tiled-clone-of="#use4847"
           xlink:href="#use4847"
           transform="translate(64.222907,0)"
           id="use4885" />
        <use
           height="100%"
           width="100%"
           x="0"
           y="0"
           inkscape:tiled-clone-of="#use4847"
           xlink:href="#use4847"
           transform="translate(85.630542,0)"
           id="use4887" />
        <use
           height="100%"
           width="100%"
           x="0"
           y="0"
           inkscape:tiled-clone-of="#use4847"
           xlink:href="#use4847"
           transform="translate(107.03818,0)"
           id="use4889" />
      </g>
      <path
         sodipodi:nodetypes="cccccccc"
         inkscape:connector-curvature="0"
         id="rect4746"
         d="m 1193.2639,395.75291 c 217.0911,8.04628 -2.9219,31.20511 783.8205,15.47365 l 3.8959,54.67361 c 1.985,52.02105 -23.3744,-12.89483 -11.6873,46.93675 -11.6872,7.73681 -964.9719,-5.15789 -964.9719,-5.15789 L 996.52953,497.36325 869.91833,364.8056 Z"
         style="opacity:1;fill:#ffffff;fill-opacity:1;stroke:#000000;stroke-width:4.52742815;stroke-linejoin:round;stroke-miterlimit:4;stroke-dasharray:none;stroke-opacity:1" />
      <path
         sodipodi:nodetypes="ccc"
         inkscape:connector-curvature="0"
         id="path4749"
         d="m 1977.3183,455.32639 c -350.2261,23.72627 -693.7872,2.07594 -1038.79618,-28.36837 l -11.68718,-5.15789"
         style="fill:none;fill-rule:evenodd;stroke:#000000;stroke-width:11.09219933;stroke-linecap:butt;stroke-linejoin:miter;stroke-miterlimit:4;stroke-dasharray:none;stroke-opacity:1" />
      <path
         sodipodi:nodetypes="ccccccccc"
         inkscape:connector-curvature="0"
         id="rect4923"
         d="m 1125.0838,265.41876 77.2666,0 0,0 0,38.39576 0,0 -77.2666,0 -1e-4,0 -4.9957,-38.39576 z"
         style="opacity:1;fill:#f2f2f2;fill-opacity:1;stroke:#000000;stroke-width:0.23200904;stroke-linejoin:round;stroke-miterlimit:4;stroke-dasharray:none;stroke-opacity:1" />
      <use
         inkscape:tile-y0="467.84709"
         inkscape:tile-x0="198.97795"
         inkscape:tile-h="9.5899141"
         inkscape:tile-w="5.9799752"
         inkscape:tile-cy="472.64205"
         inkscape:tile-cx="201.96794"
         id="use4889-6"
         transform="matrix(0.96986898,0,0.44286046,2.3945329,698.93585,-903.5482)"
         xlink:href="#use4847"
         inkscape:tiled-clone-of="#use4847"
         y="0"
         x="0"
         width="100%"
         height="100%" />
      <use
         height="100%"
         width="100%"
         id="use4975"
         xlink:href="#use4889-6"
         inkscape:tiled-clone-of="#use4889-6"
         y="0"
         x="0" />
      <use
         height="100%"
         width="100%"
         id="use4977"
         transform="translate(14.118178,-4.735881e-7)"
         xlink:href="#use4889-6"
         inkscape:tiled-clone-of="#use4889-6"
         y="0"
         x="0" />
      <use
         height="100%"
         width="100%"
         id="use4979"
         transform="translate(28.236356,-4.735881e-7)"
         xlink:href="#use4889-6"
         inkscape:tiled-clone-of="#use4889-6"
         y="0"
         x="0" />
      <use
         height="100%"
         width="100%"
         id="use4981"
         transform="translate(42.354534,-4.735881e-7)"
         xlink:href="#use4889-6"
         inkscape:tiled-clone-of="#use4889-6"
         y="0"
         x="0" />
      <use
         height="100%"
         width="100%"
         id="use4983"
         transform="translate(56.472712,-4.735881e-7)"
         xlink:href="#use4889-6"
         inkscape:tiled-clone-of="#use4889-6"
         y="0"
         x="0" />
      <rect
         ry="4.1941621e-007"
         rx="0.00014121644"
         y="287.17383"
         x="1134.9296"
         height="15.33879"
         width="138.09894"
         id="rect4985"
         style="opacity:1;fill:#e6e6e6;fill-opacity:1;stroke:#000000;stroke-width:0.22568153;stroke-linejoin:round;stroke-miterlimit:4;stroke-dasharray:none;stroke-opacity:1" />
      <path
         inkscape:connector-curvature="0"
         id="path4993"
         d="m 1273.0784,294.27831 c 0,-6.97862 -0.01,-6.98907 -3.7125,-7.38723 l -3.7125,-0.39873 12.4273,-73.86609 c 9.8695,-58.66307 12.7895,-73.94625 14.1874,-74.25567 1.2781,-0.28287 1.6447,0.41928 1.3384,2.56324 -0.2321,1.62408 -3.7021,33.01568 -7.7111,69.75912 -4.0091,36.74345 -7.5603,68.36179 -7.8916,70.26304 -0.5547,3.18293 0.2663,4.12444 10.3624,11.8838 l 10.9648,8.42702 -13.1263,0 -13.1263,0 0,-6.9885 z"
         style="opacity:1;fill:#cccccc;fill-opacity:1;stroke:none;stroke-width:0.625;stroke-linejoin:round;stroke-miterlimit:4;stroke-dasharray:none;stroke-opacity:1" />
      <path
         inkscape:connector-curvature="0"
         id="path5027"
         d="m 1480.7647,319.0504 c -1.537,-0.35822 -25.3865,-5.59308 -52.9989,-11.63301 -27.6124,-6.03994 -50.4255,-11.27446 -50.6958,-11.63227 -0.9382,-1.24217 4.3993,-20.0793 5.6981,-20.1097 0.7184,-0.0156 22.7895,5.11613 49.0469,11.40659 l 47.7407,11.43714 2.9563,8.94288 c 1.626,4.91859 3.2094,9.77535 3.5186,10.79284 0.5676,1.86741 -0.1815,1.98058 -5.2659,0.79553 z"
         style="opacity:1;fill:#ffff00;fill-opacity:1;stroke:none;stroke-width:0.2;stroke-linejoin:round;stroke-miterlimit:4;stroke-dasharray:none;stroke-opacity:1" />
      <path
         sodipodi:nodetypes="cc"
         inkscape:connector-curvature="0"
         id="path5047"
         d="m 1467.6802,324.03664 c -22.6369,-4.49431 -30.3288,8.34184 -19.8649,42.23185"
         style="fill:none;fill-rule:evenodd;stroke:#000000;stroke-width:1.83186042px;stroke-linecap:butt;stroke-linejoin:miter;stroke-opacity:1" />
      <path
         sodipodi:nodetypes="ccccccccc"
         inkscape:connector-curvature="0"
         id="rect5029"
         d="m 1426.6469,340.8243 c 40.8947,14.34618 80.1255,13.27111 118.0404,0 l 10e-5,0 -7.8247,26.04732 -2.2357,0 -107.9801,0 4.4711,0 -4.4712,-26.04732 z"
         style="opacity:1;fill:#808000;fill-opacity:1;stroke:none;stroke-width:0.2;stroke-linejoin:round;stroke-miterlimit:4;stroke-dasharray:none;stroke-opacity:1" />
      <path
         sodipodi:nodetypes="ccccccccc"
         inkscape:connector-curvature="0"
         id="rect5029-9"
         d="m 1547.3703,339.64032 c 40.8947,14.34618 80.1255,13.27111 118.0403,0 l 10e-5,0 -7.8246,26.04732 -2.2358,0 -107.98,0 4.4711,0 -4.4713,-26.04732 z"
         style="opacity:1;fill:#808000;fill-opacity:1;stroke:none;stroke-width:0.2;stroke-linejoin:round;stroke-miterlimit:4;stroke-dasharray:none;stroke-opacity:1" />
      <rect
         ry="4.1983196e-007"
         rx="4.7310074e-005"
         y="192.42256"
         x="1819.809"
         height="221.62149"
         width="3.2954776"
         id="rect5094"
         style="opacity:1;fill:#e6e6e6;fill-opacity:1;stroke:#000000;stroke-width:0.26218066;stroke-linejoin:round;stroke-miterlimit:4;stroke-dasharray:none;stroke-opacity:1" />
      <rect
         transform="matrix(0.95340182,-0.30170345,0.53633583,0.84400467,0,0)"
         ry="7.9977617e-008"
         rx="2.0196034e-005"
         y="942.89709"
         x="1383.764"
         height="4.9620061"
         width="142.77148"
         id="rect5099"
         style="opacity:1;fill:#e6e6e6;fill-opacity:1;stroke:#000000;stroke-width:0.1291085;stroke-linejoin:round;stroke-miterlimit:4;stroke-dasharray:none;stroke-opacity:1" />
      <path
         transform="matrix(1.9673432,0,0,2.604732,718.17968,-985.75016)"
         inkscape:connector-curvature="0"
         inkscape:original-d="m 364.99821,477.45172 c 1.04656,-0.41516 2.86174,-1.16054 3.94803,-1.48374 1.36568,-0.40631 2.84829,-0.61852 4.15583,-1.11281 1.65534,-0.62576 2.92965,-1.74086 4.6753,-2.22561 1.4614,-0.40581 3.12551,-0.20068 4.6753,-0.37093 0.70565,-0.0775 1.37782,-0.27096 2.07792,-0.37093 0.16979,-0.0242 0.3552,0.0391 0.51947,0 0.29288,-0.0697 1.37556,-0.41541 1.55843,-0.74188 0.26516,-0.47334 0.34632,-0.98916 0.51949,-1.48374 0,-0.61822 -0.27379,-1.26818 0,-1.85467 0.12244,-0.2623 0.76516,-0.17544 1.03895,-0.37094 0.12244,-0.0874 -0.17316,-0.37094 0,-0.37094 0.17316,0 0.17316,0.37094 0,0.37094 -0.24488,0 -0.69264,-0.24729 -0.51948,-0.37094 0.24488,-0.17486 0.69264,0 1.03896,0 0.17315,0 0.34632,0 0.51947,0 1.7316,0 3.46319,0 5.19478,0 0.86273,0 1.63451,0.2623 2.07792,-0.37093 0.0774,-0.11059 0.042,-0.25098 0,-0.37094 -0.13281,-0.37932 -0.0639,-0.89592 -0.51948,-1.1128 -3.92587,-1.86885 -6.94128,-2.1036 -11.42851,-2.59655 -0.3423,-0.0376 -1.38529,0 -1.03896,0 2.42423,0 4.84846,0 7.27269,0 1.03895,0 2.08217,0.0672 3.11687,0 0.87932,-0.0571 1.71883,-0.3082 2.59739,-0.37093 0.8615,-0.0615 1.75744,0.14994 2.59739,0 0.60569,-0.10813 1.00001,-0.5425 1.55843,-0.74187 0.15488,-0.0553 0.35149,0.03 0.51947,0 0.53124,-0.0948 1.05514,-0.21692 1.55844,-0.37094 1.92312,-0.58852 3.84285,-1.18654 5.71426,-1.85467 1.59457,-0.56931 2.97367,-1.47498 4.6753,-1.85468 1.15694,-0.25816 2.44777,0.16974 3.63634,0 1.45075,-0.20719 2.73875,-0.80925 4.15582,-1.11281 0.33172,-0.071 0.69264,0 1.03897,0 0.34632,0 0.7104,-0.0782 1.03895,0 1.12997,0.26896 1.78325,0.90241 2.59739,1.48374 0.17315,0.12365 0.34632,0.2473 0.51947,0.37094 0.17317,0.12364 0.44204,0.20504 0.51948,0.37093 0.72323,1.54929 0.51949,2.43957 0.51949,4.08029 0,0.52123 0.25002,1.89594 -0.51949,2.22561 -1.00578,0.43091 -2.04698,0.37094 -3.11687,0.37094 -0.12223,0 -1.75196,0.13819 -1.03895,-0.37094 0.12244,-0.0874 0.34632,0 0.51948,0 0.34125,0 1.95575,-0.0436 2.07791,0 0.15488,0.0553 0,0.24729 0,0.37094 0,0.49458 0,0.98916 0,1.48374 0,0.37093 0.31169,0.81606 0,1.11281 -0.32855,0.3128 -1.0272,0.2761 -1.55844,0.37093 -0.20487,0.0366 -1.97261,0.0376 -2.0779,0 -0.21904,-0.0782 -0.34632,-0.24729 -0.51949,-0.37093 -0.69263,-0.24729 -1.34325,-0.56701 -2.0779,-0.74188 -0.32855,-0.0782 -1.38528,0 -1.03896,0 0.69264,0 1.38527,0 2.07791,0 0.34632,0 1.38527,0 1.03895,0 -0.69263,0 -1.38527,0 -2.0779,0 -0.69264,0 -1.42698,-0.16901 -2.07792,0 -1.312,0.34068 -2.36878,1.066 -3.63634,1.48375 -2.36971,0.78097 -2.16582,0.74186 -3.63635,0.74186 -0.34631,0 -0.69936,-0.0485 -1.03895,0 -0.53695,0.0767 -1.01969,0.301 -1.55844,0.37094 -2.97525,0.38627 -2.92751,0.37094 -4.6753,0.37094 -0.86579,0 -1.73159,0 -2.59739,0 -0.17315,0 -0.39703,-0.0874 -0.51947,0 -0.0607,0.0433 0.0432,1.4375 0,1.48374 -0.53315,0.57104 -2.35502,0.37094 -3.11687,0.37094 -0.8658,0 -1.78869,0.22079 -2.59739,0 -0.51147,-0.13965 -0.62337,-0.64296 -0.93506,-0.96444"
         inkscape:path-effect="#path-effect5118"
         id="path5116"
         d="m 364.99821,477.45172 c -0.15878,-0.40027 0.84475,-1.72904 3.48529,-3.03905 0.75231,-0.36723 3.15732,-1.28359 3.81576,-1.68119 0.55601,-0.31977 2.5389,-1.98108 4.72172,-2.82579 0,0 0,0 0,0 2.49251,-0.75487 3.60099,-0.52694 5.08002,-0.84868 0.22995,-0.0514 1.03402,-0.32811 1.95302,-0.50988 1.33551,-0.11658 1.4037,-0.0439 0.2064,0.0228 0.0306,-0.0228 0.12455,-0.0838 0.2893,-0.16434 0.38293,-0.51097 0.13183,-0.12973 -1.0179,1.01678 -0.13032,0.47971 -0.19067,0.32229 0.0731,-0.35923 -0.18069,0.52655 -0.44927,-0.26048 0.13835,-2.83573 2.00104,-2.15031 3.15155,-2.90528 3.22026,-2.34294 -3e-5,3e-5 0,10e-6 0,10e-6 0.4905,-0.24916 0.18318,-0.0548 -1.00367,0.46063 -1.70204,3.6359 -2.18356,5.10281 -1.28538,4.44189 -1.44276,-0.36055 -0.31825,-2.24336 3.49214,-5.54289 0,0 2.7e-4,-2.3e-4 2.7e-4,-2.3e-4 5.56429,2.52822 5.64853,5.4563 1.5e-4,8.04219 -1.5e-4,2e-5 -1.5e-4,4e-5 -1.5e-4,7e-5 -1.17446,-0.0645 -2.01766,-0.31746 -2.50235,-0.7254 -1.76297,0.34738 -1.93496,-1.89379 -0.27693,-6.65988 3.31017,-1.02154 4.43696,-1.06784 3.29876,-0.77797 0.17258,-0.009 0.34574,-0.0172 0.51947,-0.0257 1.67921,-0.0824 3.41212,-0.16047 5.19478,-0.23408 0.86765,-0.007 1.21986,0.0448 1.03428,0.007 -10e-6,0 0,0 0,0 -0.65116,-0.0959 -1.41786,0.35634 -2.47128,1.36424 -0.79016,2.22289 -1.00882,3.38069 -0.54856,3.51241 0,0 2e-5,1e-5 2e-5,1e-5 -0.96798,-1.3286 -0.33452,-1.15333 1.67312,1.39452 -2.66717,-1.22376 -5.93537,-1.43559 -10.07089,-1.85439 l 0,0 c 0.20483,0.0124 0.17724,0.0325 -0.09,0.0269 l 0,0 c -0.0779,0.003 -0.14807,0.007 -0.21045,0.0112 0,0 0,0 0,0 -7e-5,-9e-5 -1e-4,-1.5e-4 -1e-4,-1.5e-4 -0.80738,-1.19641 -0.7003,-2.80439 0.33743,-4.79834 0,0 -1e-5,0 -1e-5,0 0.0202,-0.009 0.042,-0.0278 0.0629,-0.0429 2.18156,-1.50497 4.38991,-3.08376 6.64724,-4.73152 1.23248,-0.0197 2.18983,0.0359 2.79893,-0.0331 0.14786,0.0147 0.96381,-0.24498 2.56382,-0.39872 1.91081,-0.11883 2.61583,0.10782 2.07724,0.0407 -1e-5,0 0,0 0,0 -1.4201,0.61598 -1.20751,0.22216 0.75799,-0.54233 0,0 1.1e-4,-10e-6 1.1e-4,-10e-6 2.97599,-0.41535 3.4267,-0.39799 1.31701,-0.21548 0,0 -8e-5,1e-5 -8e-5,1e-5 0.35763,-0.069 0.68485,-0.14584 0.97419,-0.23911 0,0 0,0 0,0 1.87064,-0.58382 3.72709,-1.16474 5.49185,-1.79664 0.0119,-0.004 0.024,-0.009 0.0363,-0.0133 0.91807,-0.34153 2.50954,-1.28436 5.23346,-2.0028 3.11186,-0.41764 4.48773,0.005 4.02045,-0.0498 0.47585,0.0142 1.74246,-0.57018 3.8258,-1.01546 1.72808,-0.18769 2.40268,-0.14504 2.07165,-0.0978 -2e-5,0 -1e-5,0 -1e-5,0 3.55908,0.43819 -3.6447,-0.5711 2.1754,0.14587 2.40006,0.82677 3.75193,1.76471 4.28902,2.29792 0.17143,0.12637 0.3426,0.25261 0.51361,0.3788 0,0 0,10e-6 0,10e-6 -0.95795,-1.01796 -0.18289,-0.33446 2.08873,2.2735 0.99003,2.81377 1.03439,4.92108 0.89889,6.13029 -0.008,-0.0726 0.0378,0.44439 -0.009,1.5389 0.37697,1.23482 -0.73854,3.03421 -3.42295,5.02469 -2.36901,0.7688 -4.06651,0.814 -4.97537,0.67638 0,0 -1e-5,0 -1e-5,0 0.0539,0.0422 -0.36594,0.0579 -1.23425,-0.0336 0,0 10e-6,3e-5 10e-6,3e-5 0.16472,0.48909 -0.98244,-0.004 -3.34038,-1.57073 0,0 -4e-5,-2.9e-4 -4e-5,-2.9e-4 -0.94957,-5.86497 -0.56876,-8.26197 0.86164,-7.15529 3.71248,-1.03933 4.79695,-1.21581 3.19356,-0.842 0,0 1e-5,0 1e-5,0 0.27565,0.011 0.63565,0.01 1.06731,0.0158 0,0 0,0 0,0 0.21677,0.003 0.46175,0.007 0.7357,0.0164 -0.46989,-0.19284 0.1416,-0.11983 1.79703,0.2914 3.5164,5.73866 4.3796,7.33691 2.9933,4.63489 -0.0152,0.4975 -0.0306,0.9921 -0.0465,1.48374 l 0,0 c 0.52421,-1.75213 0.33197,-0.21881 -1.41379,4.32183 l 0,0 -1e-5,0 -2e-5,10e-6 c -3.01028,1.67623 -4.33647,1.90314 -3.84454,1.46844 l 0,0 -4e-5,0 0,0 c -0.77035,0.098 -1.12307,0.10943 -1.06192,0.0735 l 0,0 0,0 0,0 c -0.27515,-0.002 -0.53602,-0.008 -0.78227,-0.0164 l 0,0 c -0.23957,-0.008 -0.49638,-0.0178 -0.77086,-0.0328 l 0,0 c 0.46367,0.22365 -0.11062,0.15385 -1.67727,-0.28275 l 0,0 -10e-6,0 -2e-5,-2e-5 c -1.48257,-0.80761 -1.62508,-0.98707 -1.0342,-0.66749 l 0,0 c -0.809,-0.27921 -1.13094,-0.49218 -1.08669,-0.4226 l 0,0 c 0.59803,0.0678 0.7281,0.10833 0.41063,0.0522 l 0,0 0,0 0,0 c -0.0577,-0.003 -0.10173,-0.006 -0.132,-0.008 0,0 0,0 0,0 -0.0899,-1.37771 -0.14198,-2.75713 -0.15654,-4.13745 0,0 0,-1.4e-4 0,-1.4e-4 -0.0158,-0.0256 -0.0338,-0.055 -0.0473,-0.0742 0.0174,-0.0318 0.0412,-0.083 0.0612,-0.12669 0.62994,-1.31748 1.25381,-2.58981 1.87189,-3.81658 0.3718,1.37329 0.74108,2.7201 1.10788,4.04036 l 0,10e-6 c -0.023,0.0445 -0.046,0.089 -0.0689,0.13342 -0.70209,1.29999 -1.39462,2.54884 -2.0779,3.74641 -1.19639,0.0133 -1.8712,-0.24219 -1.13109,-0.23331 -0.46888,-0.0202 -1.70329,0.67031 -3.47748,1.19219 -1.35496,0.36304 -2.92801,0.67174 -4.74204,0.66235 -0.6768,-0.0126 -0.82592,-0.0994 -0.58686,-0.11028 l 0,0 c 0.0655,-0.0827 -0.49527,0.10918 -1.61527,0.25037 l 0,0 c -1.76411,0.0881 -3.40829,0.11003 -5.07056,-0.033 l 0,0 c 0,0 0,0 0,0 -0.9136,-0.0936 -1.78011,-0.18928 -2.59739,-0.28689 l 0,0 c -0.94215,-0.12561 -0.45544,-0.69273 1.28719,-1.3399 l 0,0 c 0,0 10e-6,-1e-5 10e-6,-1e-5 0.0281,-0.109 0.0837,-0.19396 0.12943,-0.28099 0.10143,-0.19296 0.20368,-0.35852 0.30283,-0.49799 l 0,0 c -0.0211,0.11509 -0.0366,0.25981 -0.0522,0.42668 l 0,0 c -0.0156,0.15549 -0.0313,0.34438 -0.0489,0.53497 l 0,0 0,10e-6 0,0 c -0.10141,0.29188 -0.20275,0.61465 -0.30636,0.96514 0,0 0,2e-5 0,2e-5 l 0,0 0,0 c -0.056,0.0656 -0.10096,0.13538 -0.17041,0.19156 0,0 0,10e-6 0,10e-6 -1.4885,1.20438 -2.55742,1.43993 -3.06927,1.39323 -0.72039,-0.0695 -1.3249,-0.22563 -1.70865,-0.31373 -1.14669,-0.27878 -1.67552,-0.0881 -2.84417,-0.67426 -1.43049,-0.96504 -0.65159,-1.90386 -0.68828,-1.86829 0.084,-0.0814 1.17994,0.0473 1.18184,0.0606 -3.10208,0.47031 4.50414,-0.94481 2.35061,-0.67426 0.53886,-0.0884 1.20129,-0.15489 1.57975,-0.25639 0.40493,-0.0747 0.66025,0.16373 -0.12393,0.59401 0,0 0,0 0,0 -0.0348,0.0191 -0.0962,0.0264 -0.15058,0.0411 l 0,0 0,0 c 0,0 -1e-5,1e-5 -1e-5,1e-5 -0.0999,0.23801 -0.20307,0.44701 -0.3068,0.62516 l 0,0 0,0 0,0 c -0.0243,-0.13035 -0.0534,-0.28532 -0.0814,-0.46047 l 0,0 c -0.0274,-0.15878 -0.0556,-0.34769 -0.0781,-0.56765 l 0,0 c 0.0988,-0.25218 0.20088,-0.53022 0.31058,-0.83661 0.0494,-0.13796 0.0909,-0.29081 0.16074,-0.42957 0,0 1e-5,-10e-6 1e-5,-10e-6 l 0,0 c 2.03401,-0.85286 2.90136,-1.21567 2.32613,-1.3399 l 0,0 c 0.81728,-0.0976 1.68379,-0.19329 2.59739,-0.28689 0,0 0,0 0,0 l 0,0 c 1.32146,-0.14519 2.6312,-0.41878 4.28004,-0.77487 l 0,0 c -0.054,0.004 0.33113,-0.24634 1.50161,-0.49151 l 0,0 c 0.92667,-0.10792 1.45683,-0.0993 1.49104,-0.11028 0.62696,-0.01 1.38993,-0.36215 2.53066,-0.82138 0.46968,-0.20505 1.81956,-1.11821 3.7952,-1.7753 1.90439,-0.3388 2.97074,-0.25109 3.02475,-0.23331 0.68328,1.19757 1.37581,2.44642 2.0779,3.74641 0.023,0.0444 0.046,0.0889 0.069,0.13342 l -2e-5,1e-5 c -0.3668,1.32026 -0.73608,2.66707 -1.10788,4.04036 -0.75074,-1.2268 -1.51193,-2.49907 -2.28393,-3.81658 -0.0247,-0.0437 -0.0533,-0.08 -0.0753,-0.1344 0.0105,-0.0362 0.0257,-0.0608 0.0385,-0.0894 0,0 1e-5,-1.4e-4 1e-5,-1.4e-4 0.0525,-1.3874 0.0676,-2.77167 0.0451,-4.15369 -1e-5,-1.5e-4 0,-1.5e-4 0,-1.5e-4 0.17849,-0.0161 0.34398,-0.0273 0.49618,-0.0348 l 0,0 0,0 0,0 c 0.11696,-0.0652 0.68562,-0.0508 1.70941,0.11812 l 0,0 c 1.47411,0.40897 2.46304,0.83488 3.06911,1.06116 l 0,0 c 1.03392,0.62023 0.98749,0.68442 0.005,0.0744 l 0,0 -2e-5,-1e-5 0,0 c -1.3563,-0.36135 -1.68453,-0.46954 -0.9967,-0.24073 l 0,0 c 0.16541,-0.004 0.34859,-0.0112 0.55178,-0.0192 l 0,0 c 0.20547,-0.009 0.39847,-0.018 0.57773,-0.0306 l 0,0 10e-6,-1e-5 0,0 c 0.32641,-0.0424 0.23884,-0.0192 -0.26935,0.032 l 0,0 -3e-5,0 0,0 c 1.28642,-0.52072 1.75495,-0.30414 -0.72767,0.72658 l 0,0 -2e-5,10e-6 0,0 c -1.1698,3.95798 -1.95127,4.67923 -1.41379,2.09621 l 0,0 c -0.0158,-0.49164 -0.0313,-0.98624 -0.0465,-1.48374 -1.38269,-2.95964 -0.27698,-1.76329 2.9933,3.89301 1.45143,0.33826 1.82772,0.4496 1.14059,0.25461 -0.14477,0.004 -0.31751,0.0123 -0.52146,0.0205 0,0 0,0 0,0 -0.30949,0.0147 -0.70319,0.0375 -1.17489,0.0485 0,0 -1e-5,0 -1e-5,0 -1.94417,0.37111 -1.28163,-0.005 2.1546,-0.842 1.24053,1.2429 1.3404,-0.91707 0.55033,-6.60981 0,0 -4e-5,-2.7e-4 -4e-5,-2.7e-4 -2.18487,-1.38001 -3.03566,-1.87438 -2.61656,-1.36344 0,0 2e-5,2e-5 2e-5,2e-5 -0.3175,-0.0434 -0.17887,-0.0867 0.43111,-0.0445 0,0 1e-5,0 1e-5,0 1.18157,-0.13959 1.66429,0.002 1.25837,-0.0655 -1.92786,1.66645 -2.76451,2.53627 -2.32633,2.94275 0.0125,0.31551 -0.0587,0.0289 -0.0665,-0.83038 -0.13702,-1.5292 0.0502,-2.30385 -0.14009,-2.03029 2.08067,2.20779 2.36872,2.81008 1.04977,1.53164 0,0 -1e-5,0 -1e-5,0 -0.17475,-0.1207 -0.34989,-0.24174 -0.52532,-0.36307 -1.09469,-0.62967 -1.33009,-1.02111 -0.90576,-0.66956 1.1488,0.0657 1.23184,0.19784 0.0975,0.14587 0,0 -10e-6,0 -10e-6,0 -1.06571,0.0499 -1.01195,-0.058 -0.006,-0.0978 -0.60099,0.12963 -2.19515,0.80168 -4.48584,1.21016 -2.86022,0.29031 -3.97331,-0.16073 -3.25223,-0.0498 -0.53086,0.007 -1.72293,0.84274 -3.9867,1.65953 -0.0312,0.0113 -0.0626,0.0225 -0.0942,0.0337 -2.02913,0.72259 -4.02883,1.34023 -5.93667,1.9127 0,0 -10e-6,0 -10e-6,0 -0.73522,0.22026 -1.45156,0.38466 -2.14268,0.50277 0,0 -9e-5,10e-6 -9e-5,10e-6 -2.46623,0.24516 -2.35693,0.0811 0.2781,-0.21548 0,0 9e-5,-10e-6 9e-5,-10e-6 0.88795,-0.37988 0.18148,0.13036 -2.35887,0.94141 0,0 0,0 0,0 -2.25204,0.23693 -3.31069,0.0357 -3.11754,0.0407 -0.15707,-0.0271 -1.04078,0.21654 -2.63096,0.34314 -1.46187,0.0653 -2.62273,-0.0135 -3.43481,-0.0331 -2.69568,-1.64787 -5.32108,-3.22644 -7.89814,-4.73152 -0.0248,-0.0151 -0.0505,-0.0264 -0.0747,-0.0467 10e-6,-7.3e-4 10e-6,-7.3e-4 10e-6,-7.3e-4 1.12799,-2.01898 1.33893,-3.61354 0.62508,-4.81294 0,0 -4e-5,-5e-5 -4e-5,-5e-5 -6e-5,-10e-5 -5e-5,-10e-5 -5e-5,-10e-5 0.1455,-0.002 0.28312,-0.003 0.41284,-0.001 l 0,0 c 0.16984,-0.0101 0.57699,-0.001 1.21454,0.0587 l 0,0 c 4.1947,0.4963 8.52847,1.2665 12.78613,3.33871 2.75694,2.88311 3.4212,4.18563 2.71208,3.62012 0,0 3e-5,2e-5 3e-5,2e-5 0.54561,0.37509 0.38883,1.82102 -0.54857,4.25428 -1.44482,1.56688 -2.90924,2.28014 -4.23471,2.21009 0,0 0,0 0,0 -0.99481,-0.008 -1.42574,-0.0906 -1.35813,-0.0974 -1.78266,-0.0736 -3.51557,-0.15172 -5.19478,-0.23408 -0.17373,-0.009 -0.34689,-0.0171 -0.51947,-0.0257 -1.9307,0.30663 -1.43878,-0.18617 1.22084,-0.77797 1.49412,-4.64875 1.52365,-6.65165 -0.071,-6.1962 -0.2344,-0.24792 -0.79005,-0.38269 -1.66934,-0.4472 0,3e-5 0,5e-5 0,7e-5 -5.29507,2.5845 -5.21925,4.77072 0,7.30031 0,0 2.6e-4,-2.3e-4 2.6e-4,-2.3e-4 3.68175,-3.29939 4.84437,-4.99369 3.45411,-5.2375 0.96356,-0.51739 0.58249,1.15154 -1.24734,4.87838 -1.52079,0.7524 -2.24698,0.96105 -2.15613,0.78147 0,0 2e-5,-2e-5 2e-5,-2e-5 -0.27875,0.61936 0.44062,-0.0875 2.2948,-1.92187 0.0353,-1.29508 0.34538,-1.01294 0.13835,0.87361 -0.0843,0.31698 -0.32953,1.23255 -0.96584,2.60825 -1.44642,1.67149 -2.3315,2.23193 -2.49382,1.95124 -0.3736,0.14107 -0.8252,0.27541 -1.35164,0.38496 -1.53504,0.14675 -1.82799,0.0904 -0.83254,0.0228 -0.37216,0.002 -1.199,0.15768 -2.20282,0.23198 -2.46371,0.14347 -3.31457,-0.30327 -4.27058,-0.10682 0,0 -10e-6,0 -10e-6,0 -0.78852,0.006 -2.95173,1.15459 -4.62887,1.62543 -1.73927,0.44218 -3.68536,0.47799 -4.4959,0.54443 -2.62807,0.21903 -4.14626,0.59521 -4.41077,-0.0716 z"
         style="opacity:0.17000002;fill:#000000;fill-rule:evenodd;stroke:none;stroke-width:1px;stroke-linecap:butt;stroke-linejoin:miter;stroke-opacity:1;filter:url(#filter5120)" />
      <path
         inkscape:connector-curvature="0"
         id="path5130"
         d="m 1695.0646,511.47027 c -77.7912,-0.35696 -309.4917,-2.56678 -534.8715,-5.10129 l -153.6986,-1.72842 -4.4713,-5.32337 c -2.45914,-2.92788 -17.17328,-18.58479 -32.69802,-34.79321 -15.52475,-16.20838 -28.06328,-29.68634 -27.8634,-29.95095 0.19988,-0.26464 10.8899,0.4825 23.75557,1.66033 30.05542,2.75154 85.79445,7.38085 134.05525,11.13375 328.2545,25.52603 573.6992,31.07213 819.3537,18.51425 23.977,-1.22571 47.2414,-2.63794 51.6987,-3.13828 l 8.1041,-0.90973 0,8.93261 c 0,13.28825 -0.279,13.77096 -7.3256,12.67445 -5.8502,-0.91036 -5.9879,-0.84409 -6.7652,3.25672 -0.4365,2.3023 -0.2832,8.21725 0.3406,13.14436 0.6701,5.29261 0.7211,9.31424 0.1247,9.82802 -1.5373,1.3244 -96.981,2.87174 -152.3691,2.4702 -27.051,-0.19614 -79.8674,-0.49735 -117.3699,-0.66944 z"
         style="opacity:0.17000002;fill:#000000;fill-opacity:1;stroke:#000000;stroke-width:0.25724027;stroke-linejoin:round;stroke-miterlimit:4;stroke-dasharray:none;stroke-opacity:1" />
      <path
         inkscape:connector-curvature="0"
         id="path5132"
         d="m 1740.0859,511.70995 c -0.17,-0.20603 -65.9523,-0.82486 -146.183,-1.37522 -80.2307,-0.55035 -170.2702,-1.26847 -200.0878,-1.59584 -29.8175,-0.32733 -82.3824,-0.91155 -116.811,-1.29822 -34.4285,-0.38667 -108.3715,-1.10641 -164.3178,-1.59941 -55.9463,-0.49297 -102.851,-1.20667 -104.2325,-1.58594 -2.2942,-0.6298 -12.95833,-11.31897 -26.1264,-26.18762 -1.61079,-1.8188 -4.28348,-4.59735 -5.9393,-6.17454 -1.65583,-1.57722 -3.9529,-3.94968 -5.1046,-5.27216 -1.15172,-1.3225 -3.4221,-3.69497 -5.04527,-5.27216 -1.6232,-1.57719 -4.12151,-4.19961 -5.55179,-5.82757 -1.43028,-1.62795 -3.93826,-4.29186 -5.57328,-5.91982 -1.63504,-1.62796 -3.80752,-4.1254 -4.82775,-5.54988 -1.0202,-1.42445 -2.37666,-2.58991 -3.01434,-2.58991 -0.63767,0 -1.78768,-1.33198 -2.55558,-2.95994 -1.26545,-2.68282 -1.10751,-2.97632 1.68729,-3.13518 1.69589,-0.0964 3.33495,-0.16931 3.64234,-0.16176 1.51171,0.0365 34.3233,2.75276 48.62468,4.02554 11.4085,1.0153 38.6838,3.28329 53.6548,4.46151 5.5332,0.43546 13.8329,1.11274 18.4439,1.50509 11.4521,0.97446 24.1279,1.95939 37.4466,2.90965 6.1479,0.43866 14.9506,1.11133 19.5616,1.49483 19.6492,1.63426 26.9756,2.18755 39.1233,2.95473 7.0702,0.4465 16.6274,1.11336 21.2384,1.48191 4.6109,0.36854 14.1682,1.02709 21.2383,1.46344 12.2214,0.75428 20.7347,1.30911 45.5507,2.96861 5.9943,0.40087 16.4318,1.04867 23.1946,1.43958 6.7627,0.39092 18.332,1.0605 25.7096,1.48798 22.3729,1.29633 38.2432,2.13034 57.0082,2.99591 9.8367,0.45372 22.4121,1.1154 27.9452,1.47043 5.5332,0.355 23.1387,1.06638 39.1233,1.58081 15.9847,0.51443 32.3326,1.1453 36.3288,1.40192 58.4799,3.75532 344.2632,3.75584 394.0275,7e-4 3.6888,-0.27837 18.0247,-0.9271 31.8576,-1.44166 13.8329,-0.51457 28.6718,-1.20334 32.9754,-1.53062 4.3035,-0.32726 15.6213,-0.99303 25.1506,-1.47947 22.12,-1.12915 28.2682,-2.00379 29.3084,-4.16931 0.9957,-2.07298 1.1771,16.94107 0.194,20.33327 -0.4854,1.67453 -2.172,2.341 -5.9244,2.341 -2.8852,0 -5.8495,0.79918 -6.5873,1.77596 -1.5824,2.09511 -1.7754,12.79939 -0.322,17.86072 0.5607,1.95238 0.6864,4.22766 0.2795,5.05615 -0.407,0.82851 -6.2731,2.02023 -13.0358,2.64831 -10.9273,1.0148 -211.3046,2.40208 -212.0747,1.46824 z"
         style="opacity:0.51000001;fill:#000000;fill-opacity:1;stroke:#000000;stroke-width:0.25724027;stroke-linejoin:round;stroke-miterlimit:4;stroke-dasharray:none;stroke-opacity:1" />
      <path
         inkscape:connector-curvature="0"
         id="path5134"
         d="m 914.914,387.88704 c 29.51015,13.02366 29.51015,13.02366 29.51015,13.02366"
         style="fill:none;fill-rule:evenodd;stroke:#000000;stroke-width:6.56477118;stroke-linecap:butt;stroke-linejoin:miter;stroke-miterlimit:4;stroke-dasharray:none;stroke-opacity:1" />
      <path
         sodipodi:nodetypes="cc"
         inkscape:connector-curvature="0"
         id="path5136"
         d="m 934.4183,382.01518 c 9.76734,6.29009 12.75331,12.5802 10.13079,18.87029"
         style="fill:none;fill-rule:evenodd;stroke:#000000;stroke-width:3.32410622;stroke-linecap:butt;stroke-linejoin:miter;stroke-miterlimit:4;stroke-dasharray:none;stroke-opacity:1" />
      <path
         inkscape:transform-center-y="1.6557386"
         inkscape:transform-center-x="-1.9660246"
         sodipodi:nodetypes="cc"
         inkscape:connector-curvature="0"
         id="path5136-3"
         d="m 925.86168,408.33005 c 11.7788,-0.88814 17.64065,-4.23017 18.6089,-9.60161"
         style="fill:none;fill-rule:evenodd;stroke:#000000;stroke-width:2.97466183;stroke-linecap:butt;stroke-linejoin:miter;stroke-miterlimit:4;stroke-dasharray:none;stroke-opacity:1" />
      <ellipse
         transform="matrix(1,0,0.20791169,0.9781476,0,0)"
         ry="5.0395374"
         rx="1.756992"
         cy="396.00296"
         cx="832.67096"
         id="path5155"
         style="opacity:0.94800002;fill:#000000;fill-opacity:1;stroke:#000000;stroke-width:3.45174122;stroke-linejoin:round;stroke-miterlimit:4;stroke-dasharray:none;stroke-opacity:1" />
      <path
         inkscape:connector-curvature="0"
         id="path5217"
         d="m 1281.1004,175.32598 c -1.4473,-0.46288 -5,-1.95772 -7.8947,-3.32185 l -5.2632,-2.48024 6.8097,-0.3281 c 9.7073,-0.46772 11.6114,0.19067 11.6114,4.01491 0,3.28129 -0.7166,3.56931 -5.2632,2.11528 z"
         style="opacity:0.94800002;fill:#e6e6e6;fill-opacity:1;stroke:none;stroke-width:2.9000001;stroke-linejoin:round;stroke-miterlimit:4;stroke-dasharray:none;stroke-opacity:1" />
    </g>
  </g>
</svg>
