<?xml version="1.0" encoding="UTF-8"?>
<!DOCTYPE svg PUBLIC "-//W3C//DTD SVG 1.1//EN" "http://www.w3.org/Graphics/SVG/1.1/DTD/svg11.dtd">
<svg version="1.1" xmlns="http://www.w3.org/2000/svg" xmlns:xlink="http://www.w3.org/1999/xlink" x="0" y="0" width="394" height="399" viewBox="0, 0, 394, 399">
  <g id="layer1">
    <path d="M199.433,127.748 C210.092,131.086 219.64,135.288 227.207,141.032 C228.571,133.499 226.617,127.777 224.188,122.315 C232.707,123.551 238.72,130.116 242.982,136.387 C249.419,145.856 253.284,158.603 252.928,172.187 C262.093,187.958 265.903,204.29 265.392,219.803 C265.019,231.124 261.659,242.215 254.21,252.991 C251.596,277.26 245.973,289.499 235.458,282.16 C225.743,288.096 229.787,257.59 222.679,245.59 C216.79,235.648 208.729,225.85 197.956,216.233 C173.98,217.375 153.201,213.769 141.256,197.035 C147.812,197.665 154.55,197.929 161.793,197.184 C142.123,188.226 120.676,191.877 107.982,197.909 C83.747,209.426 74.481,237.941 64.912,265.194 C73.511,272.329 84.399,279.162 90.082,286.083 C96.132,293.451 95.082,301.031 99.587,308.054 C90.455,307.789 82.189,310.75 74.874,308.094 C68.419,305.751 65.38,301.04 57.917,294.065 C55.241,309.536 48.914,321.894 34.553,327.401 C34.556,317.251 31.724,304.952 31.551,294.902 C31.407,286.574 34.096,280.395 32.64,272.803 C31.569,267.218 29.996,261.913 27.707,257.009 C1.583,196.691 -1.264,153.417 6.16,119.039 C10.215,100.263 18.28,81.061 30.908,65.206 C42.919,50.125 59.1,38.092 78.33,31.553 C101.218,23.771 131.615,22.572 161.338,37.321 C186.991,8.583 229.256,-1.259 262.83,2.98 C287.452,6.089 320.721,16.09 336.14,46.351 C336.606,36.396 334.618,26.352 332.218,16.97 C345.405,30.268 350.265,47.896 348.731,65.267 C350.371,75.07 351.63,84.193 352.23,93.436 C353.078,106.515 352.97,119.354 349.772,131.348 C347.326,140.521 341.393,147.29 336.124,155.705 C330.688,164.387 327.869,181.936 316.827,182.089 C314.331,181.703 312.364,179.654 310.772,176.428 C307.878,170.565 309.239,159.845 307.882,149.12 C306.164,135.538 302.514,121.363 299.259,110.593 C280.089,102.702 262.897,93.793 252.289,83.24 C245.49,76.475 241.395,68.94 241.22,60.292 C254.074,69.995 267.031,77.661 280.189,81.297 C271.531,68.144 262.128,60.115 249.667,55.939 C235.124,51.065 217.469,53.942 198.934,55.041 C194.093,56.255 190.086,58.065 187.05,60.568 C201.515,82.519 209.026,104.767 199.433,127.748 z M38.083,181.242 C38.745,194.132 40.617,206.849 43.401,219.435 C50.155,200.607 57.236,183.036 66.752,169.373 C74.154,158.746 83.412,150.941 92.673,143.791 C111.381,129.348 134.051,122.312 161.363,123.954 C154.64,112.991 138.344,106.441 121.236,100.265 C107.934,115.481 93.206,129.118 65.882,128.788 C71.379,124.841 77.857,121.874 83.126,117.696 C86.821,114.766 88.739,110.085 91.021,105.583 C74.381,109.945 62.329,118.057 53.953,129.175 C49.215,135.464 46.449,142.829 43.898,150.906 C41.007,160.06 41.802,173.574 38.083,181.242 z" fill="#000000" id="path3737"/>
    <path d="M334.912,293.002 C319.47,330.441 296.353,361.375 267.651,378.526 C249.488,389.38 229.668,396.07 210.503,396.788 C192.013,397.48 173.794,392.412 158.343,384.389 C135.219,372.384 118.958,353.039 110.251,328.687 C104.608,312.903 102.453,295.218 106.542,279.727 C109.208,269.623 114.943,260.383 125.046,253.053 C129.95,239.538 132.651,229.023 138.763,227.166 C141.343,226.381 144.273,227.14 147.646,229.867 C151.425,230.131 153.873,233.774 153.989,238.876 C154.12,244.658 151.623,252.359 151.372,259.97 C151.165,266.247 153.171,272.356 154.485,276.986 C157.674,288.214 162.189,299.111 168.505,309.557 C182.829,306.01 196.066,305.57 208.1,308.567 C219.405,311.382 229.647,317.231 238.732,326.389 C223.402,323.44 207.414,324.439 190.366,331.806 C202.073,343.077 234.182,339.034 253.272,330.409 C265.135,325.048 281.195,317.619 291.619,306.473 C299.3,298.261 305.967,279.428 308.307,268.611 C309.605,262.615 310.117,256.912 310.002,251.444 C309.462,225.779 278.12,226.549 283.229,183.833 C298.371,198.811 323.399,204.763 336.392,219.097 C340.821,214.012 346.077,209.625 351.884,205.706 C363.774,197.68 377.975,193.112 392.122,185.491 C391.642,197.963 387.857,209.033 383.216,219.772 C376.021,236.42 362.684,243.13 351.617,257.457 C345.195,265.77 340.105,276.86 334.912,293.002 z" fill="#000000" id="path3739"/>
    <path d="M336.731,25.659 C338.148,33.103 339.11,40.632 338.019,47.561 C341.242,53.144 343.603,58.082 346.136,63.665 C347.379,50.996 343.872,38.328 336.731,25.659 z" fill="#6AB3CE" id="path3741"/>
    <path d="M313.797,172.584 C317.763,164.555 321.825,156.623 323.954,148.208 C326.404,149.207 330.015,149.82 334.788,150.046 C328.626,159.695 325.289,172.21 321.225,176.732 C318.26,180.032 315.68,179.642 313.797,172.584 z" fill="#6AB3CE" id="path3743"/>
    <path d="M313.096,164.821 C311.649,145.834 308.939,127.578 301.722,111.932 C305.618,112.614 309.883,112.804 314.689,112.273 C317.489,122.813 319.318,134.907 320.603,147.874 C319.067,154.006 316.451,159.599 313.096,164.821 z" fill="#BAE5F7" id="path3745"/>
    <path d="M315.441,131.28 C316.296,131.28 316.989,132.081 316.989,133.069 C316.989,134.057 316.296,134.859 315.441,134.859 C314.586,134.859 313.893,134.058 313.893,133.069 C313.893,132.081 314.586,131.28 315.441,131.28 z" fill="#000000" id="path3747"/>
    <path d="M208.418,50.953 C235.704,49.146 263.07,46.769 285.126,81.571 C292.693,83.284 300.193,85.052 305.592,88.501 C297.61,69.411 283.469,58.129 272.349,51.582 C251.121,39.083 226.514,41.426 208.418,50.953 z" fill="#BAE5F7" id="path3749"/>
    <path d="M337.353,146.408 C341.838,140.542 345.284,136.83 347.01,129.611 C349.692,118.384 349.546,105.977 349.098,94.83 C348.75,86.16 348.748,78.251 346.344,72.254 C336.018,46.492 323.66,29.083 305.308,19.225 C292.221,12.195 272.606,5.758 249.922,5.596 C223.394,5.407 185.028,12.122 163.281,39.868 C172.014,45.361 178.627,51.562 183.788,58.247 C220.844,36.478 249.787,34.265 272.436,47.223 C288.146,56.211 305.589,72.943 311.088,94.618 C299.949,87.199 291.025,86.184 282.368,84.829 C277.346,84.043 272.412,83.013 267.188,80.886 C259.991,77.954 253.108,74.08 246.858,68.307 C251.318,81.887 269.446,93.17 285.307,100.762 C294.511,105.167 302.618,110.487 317.859,108.741 C320.963,120.004 322.599,132.002 323.64,144.298 C327.485,146.332 331.96,147.212 337.353,146.408 z" fill="#6AB3CE" id="path3751"/>
    <path d="M138.56,231.702 C135.139,236.261 131.341,243.933 128.534,253.697 C132.872,254.394 135.634,256.076 137.681,258.206 C141.826,251.011 145.061,243.485 146.056,235.144 C147.213,230.543 144.811,232.05 143.74,231.476 C142.527,230.825 141.144,227.663 138.56,231.702 z" fill="#6AB3CE" id="path3753"/>
    <path d="M165.252,310.641 C157.108,295.412 152.555,282.481 149.487,269.396 C146.983,258.717 151.777,248.28 149.534,237.979 C147.416,246.217 144.449,254.031 139.614,260.911 C144.506,266.249 144.522,276.048 145.202,285.841 C145.904,295.945 145.554,306.621 151.338,315.408 C155.69,313.819 160.328,312.23 165.252,310.641 z" fill="#BAE5F7" id="path3755"/>
    <path d="M287.304,314.207 C266.906,328.269 246.769,338.289 227.194,340.848 C213.686,342.615 197.316,342.13 187.573,333.767 C182.476,335.47 177.041,336.668 171.453,337.635 C186.62,350.725 203.325,355.039 221.339,351.877 C241.755,348.293 271.126,335.106 287.304,314.207 z" fill="#BAE5F7" id="path3757"/>
    <path d="M122.017,260.043 C125.887,254.434 132.279,258.18 136.04,262.589 C138.169,265.085 140.225,268.854 140.906,273.73 C141.969,281.336 141.158,291.421 143.36,301.37 C144.721,307.513 146.841,313.736 150.389,319.581 C176.247,308.941 202.441,302.761 230.56,322.16 C224.709,321.368 218.345,321.464 211.577,322.275 C197.055,324.017 181.517,333.282 163.5,335.701 C189.203,360.585 221.008,358.672 245.621,347.886 C267.666,338.225 288.116,321.883 299.176,301.703 C304.227,292.487 307.817,283.058 309.657,274.229 C312.161,264.911 314.285,256.363 313.6,248.612 C311.628,226.301 283.675,220.681 286.388,191.562 C301.99,202.367 327.414,210.046 335.872,223.976 C341.017,219.745 345.484,213.038 353.97,207.858 C363.003,202.343 374.735,197.04 388.904,191.928 C377.159,243.109 359.364,235.699 345.7,259.035 C340.5,267.917 337.067,277.486 333.313,287.909 C328.298,301.834 323.561,313.098 315.339,325.415 C295.915,354.512 274.427,372.132 254.428,382.123 C239.203,389.728 223.893,393.482 210.459,393.942 C190.177,394.638 173.443,388.555 161.953,382.676 C153.715,378.461 142.42,371.471 133.323,361.594 C121.627,348.896 112.678,331.803 109.176,313.704 C105.869,296.607 107.855,272.277 122.017,260.043 z" fill="#6AB3CE" id="path3759"/>
    <path d="M232.333,271.445 C230.92,261.262 230.332,252.658 226.734,244.81 C221.474,233.342 211.028,224.999 203.165,215.042 C209.787,214.522 216.037,213.629 221.469,211.917 C225.701,217.356 229.3,223.259 232.203,229.673 C235.293,236.501 233.725,243.462 239.03,251.949 C235.409,256.662 233.176,263.16 232.333,271.445 z" fill="#BAE5F7" id="path3761"/>
    <path d="M236.054,280.076 C235.655,270.674 236.298,261.794 240.667,254.777 C243.941,256.762 247.215,256.563 250.489,254.182 C249.18,274.775 244.555,286.421 236.054,280.076 z" fill="#6AB3CE" id="path3763"/>
    <path d="M201.825,189.743 C182.188,170.002 150.62,167.022 131.583,169.733 C97.646,174.565 65.96,207.002 64.168,256.414 C70.492,241.038 75.975,225.334 83.944,213.556 C89.053,206.006 95.754,200.558 102.477,196.238 C111.722,190.298 123.865,186.871 136.334,187.219 C146.665,187.508 157.091,190.302 167.448,197.184 C181.853,196.422 193.312,193.942 201.825,189.743 z" fill="#BAE5F7" id="path3765"/>
    <path d="M163.07,127.212 C148.518,126.871 135.397,127.905 123.316,131.655 C111.236,135.405 100.195,141.87 90.506,149.576 C70.191,165.733 57.152,191.144 44.687,223.079 C48.979,235.267 51.161,247.279 58.617,259.643 C64.451,233.977 69.487,212.567 78.432,199.372 C89.934,182.405 104.409,174.948 118.41,169.715 C131.864,164.687 147.846,163.528 164.108,166.859 C179.87,170.087 195.897,177.514 210.141,191.048 C190.816,197.784 170.729,201.663 149.529,201.365 C168.47,214.002 193.019,216.138 223.682,206.739 C226.985,211.163 233.528,220.429 236.67,230.333 C239.221,238.376 239.083,246.949 242.353,250.569 C244.785,253.262 249.432,252.385 252.213,249.514 C253.803,247.873 255.464,245.094 257.212,240.914 C269.225,212.165 257.031,185.176 245.124,165.519 C235.752,150.047 220.258,136.177 198.535,131.941 C199.462,142.73 198.957,149.392 197.365,152.926 C195.314,157.48 186.461,159.737 181.541,156.033 C175.012,151.117 176.118,137.909 163.07,127.212 z" fill="#6AB3CE" id="path3767"/>
    <path d="M248.995,165.316 C248.093,150.028 241.05,135.34 229.798,128.212 C231.387,133.032 231.859,137.992 230.7,143.156 C238.984,148.555 244.491,156.479 248.995,165.316 z" fill="#6AB3CE" id="path3769"/>
    <path d="M179.895,143.936 C172.882,132.556 167.999,122.884 158.225,115.103 C149.044,107.793 138.664,101.669 123.493,98.331 C128.758,92.477 133.863,86.516 137.835,79.799 C150.173,87.754 162.603,95.642 171.036,106.461 C175.155,111.745 175.097,117.728 180.056,124.759 C179.089,130.466 179.142,136.939 179.895,143.936 z" fill="#BAE5F7" id="path3771"/>
    <path d="M194.882,130.4 C190.047,130.131 186.072,129.003 182.957,127.015 C180.034,156.336 191.521,158.262 194.387,148.175 C195.508,144.228 195.901,138.122 194.882,130.4 z" fill="#6AB3CE" id="path3773"/>
    <path d="M110.601,73.191 C91.721,76.715 73.757,82.054 60.36,96.442 C47.375,110.387 31.71,134.176 37.6,170.365 C38.456,149.427 45.435,135.718 53.71,124.902 C63.388,112.251 76.776,105.142 92.955,102.198 C99.61,92.787 103.173,81.314 110.601,73.191 z" fill="#BAE5F7" id="path3775"/>
    <path d="M94.601,305.301 C93.973,299.167 91.685,293.959 88.072,289.161 C82.085,281.213 71.576,275.719 63.78,268.99 C57.113,263.237 52.847,256.283 50.438,249.413 C46.679,238.697 43.069,228.321 40.514,218.338 C37.152,205.199 35.623,192.439 34.448,180.77 C31.445,150.949 34.867,126.599 46.348,109.037 C51.045,101.854 57.52,94.096 65.773,87.496 C79.713,76.348 104.131,67.014 117.712,72.297 C109.755,77.944 104.773,88.8 98.751,99.228 C92.728,109.655 87.003,120.846 75.325,125.377 C85.511,123.566 96.082,120.512 109.694,107.624 C117.33,100.394 125.923,90.069 135.942,75.132 C147.044,80.893 157.112,87.808 166.327,95.674 C169.189,98.117 172.797,101.64 174.474,105.295 C178.963,115.078 182.184,126.359 195.446,126.854 C203.487,109.73 199.223,94.097 194.431,81.415 C185.175,56.923 161.324,37.122 134.571,31.104 C104.251,24.284 70.204,33.884 49.452,50.976 C20.778,74.594 1.308,119.3 5.978,170.568 C7.001,181.798 8.998,193.344 12.517,205.05 C16.301,217.641 20.477,231.642 25.731,245.268 C29.21,254.293 34.44,262.642 35.746,272.145 C36.936,280.798 34.883,287.804 34.795,296.513 C34.713,304.695 37.614,314.014 37.672,322.713 C48.645,315.879 53.505,303.85 55.88,289.709 C64.869,293.328 66.628,302.577 76.264,305.693 C80.464,307.051 85.595,306.359 94.601,305.301 z" fill="#6AB3CE" id="path3777"/>
    <path d="M169.003,110.147 C169.858,110.147 170.551,110.948 170.551,111.937 C170.551,112.925 169.858,113.726 169.003,113.726 C168.149,113.726 167.456,112.925 167.456,111.937 C167.456,110.949 168.148,110.147 169.003,110.147 z" fill="#000000" id="path3779"/>
    <path d="M228.68,233.369 C229.534,233.369 230.227,234.171 230.227,235.159 C230.227,236.147 229.535,236.948 228.68,236.949 C227.825,236.949 227.132,236.147 227.132,235.159 C227.132,234.171 227.825,233.369 228.68,233.369 z" fill="#000000" id="path3781"/>
    <path d="M148.723,280.011 C149.578,280.011 150.271,280.812 150.271,281.8 C150.271,282.789 149.578,283.59 148.723,283.59 C147.868,283.59 147.175,282.789 147.175,281.8 C147.175,280.812 147.868,280.011 148.723,280.011 z" fill="#000000" id="path3783"/>
  </g>
</svg>
